<svg id="Ebene_1" data-name="Ebene 1" xmlns="http://www.w3.org/2000/svg" viewBox="0 0 87.85 79.19"><defs><style>.cls-1{fill:#518ecb;}.cls-1,.cls-2{stroke:#1d1d1b;stroke-linecap:round;stroke-linejoin:round;stroke-width:2px;}.cls-2{fill:none;}</style></defs><polygon class="cls-1" points="1 51.81 6.91 26.18 47.89 26.18 53.02 51.81 1 51.81"/><line class="cls-2" x1="4.51" y1="78.19" x2="62.51" y2="78.06"/><polyline class="cls-2" points="59.45 51.81 59.45 78.06 7.57 78.06 7.57 51.81"/><line class="cls-2" x1="7.57" y1="23.32" x2="1" y2="51.81"/><line class="cls-2" x1="59.46" y1="23.32" x2="66.02" y2="51.81"/><polyline class="cls-2" points="66.02 51.81 1 51.81 6.91 26.18 47.89 26.18"/><line class="cls-2" x1="7.57" y1="23.32" x2="59.46" y2="23.32"/><path class="cls-2" d="M62.39,67.78,57.26,42.16Z" transform="translate(-9.36 -15.97)"/><line class="cls-2" x1="3.27" y1="41.97" x2="51.05" y2="41.97"/><polyline class="cls-2" points="49.26 33.02 34.4 33.02 19.16 33.02 5.34 33.02"/><line class="cls-2" x1="19.71" y1="26.18" x2="17.64" y2="51.81"/><line class="cls-2" x1="33.94" y1="26.18" x2="35.65" y2="51.81"/><rect class="cls-2" x="26.94" y="55.45" width="13.14" height="22.74"/><rect class="cls-2" x="10.8" y="55.45" width="12.15" height="10.14"/><rect class="cls-2" x="44.04" y="55.45" width="12.15" height="10.14"/><path class="cls-2" d="M68.82,77.7s19.85,2.46,19.85-19.85" transform="translate(-9.36 -15.97)"/><line class="cls-2" x1="79.3" y1="41.88" x2="79.3" y2="22.78"/><path class="cls-2" d="M81.13,31.21a7.54,7.54,0,1,0,15.08,0" transform="translate(-9.36 -15.97)"/><line class="cls-2" x1="71.77" y1="15.24" x2="71.77" y2="7.57"/><line class="cls-2" x1="86.85" y1="15.24" x2="86.85" y2="7.57"/><line class="cls-2" x1="71.76" y1="7.57" x2="86.84" y2="7.57"/><line class="cls-2" x1="75.81" y1="7.57" x2="75.81" y2="1"/><line class="cls-2" x1="82.81" y1="7.57" x2="82.81" y2="1"/></svg>