<svg id="Ebene_1" data-name="Ebene 1" xmlns="http://www.w3.org/2000/svg" viewBox="0 0 92.92 92.92"><defs><style>.cls-1{fill:#4974b9;}.cls-2{fill:#fff;}.cls-2,.cls-3{stroke:#1d1d1b;stroke-linecap:round;stroke-linejoin:round;stroke-width:1.25px;}.cls-3{fill:none;}</style></defs><rect class="cls-1" width="92.92" height="92.92" rx="12"/><polygon class="cls-2" points="59.91 32.37 65.6 57.03 59.91 57.03 59.91 79.76 43.14 79.76 43.14 79.87 31.75 79.87 31.75 79.76 14.98 79.76 14.98 57.03 9.29 57.03 11.26 48.51 13.05 40.76 14.41 34.85 14.98 32.37 59.91 32.37"/><path class="cls-2" d="M87.16,22.27v6.64a6.53,6.53,0,1,1-13,0V22.27Z" transform="translate(-3.54 -3.54)"/><polygon class="cls-1" points="54.34 57.03 9.29 57.03 11.26 48.51 13.05 40.76 14.41 34.85 49.9 34.85 52.63 48.51 54.34 57.03"/><line class="cls-3" x1="12.34" y1="79.87" x2="62.55" y2="79.76"/><polyline class="cls-3" points="14.98 57.03 14.98 79.76 31.75 79.76 43.14 79.76 59.91 79.76 59.91 65.62 59.91 57.03"/><polyline class="cls-3" points="9.29 57.03 11.26 48.51 13.05 40.76 14.41 34.85 14.98 32.37"/><line class="cls-3" x1="65.6" y1="57.03" x2="59.91" y2="32.37"/><polyline class="cls-3" points="49.9 34.85 37.81 34.85 25.5 34.85 14.41 34.85 13.05 40.76 11.26 48.51 9.29 57.03 14.98 57.03 23.71 57.03 39.29 57.03 54.34 57.03 59.91 57.03 65.6 57.03"/><line class="cls-3" x1="59.91" y1="32.37" x2="14.98" y2="32.37"/><path class="cls-3" d="M57.88,60.58,53.44,38.39Z" transform="translate(-3.54 -3.54)"/><line class="cls-3" x1="11.26" y1="48.51" x2="52.63" y2="48.51"/><polyline class="cls-3" points="51.08 40.76 38.21 40.76 25.02 40.76 13.05 40.76"/><line class="cls-3" x1="25.5" y1="34.85" x2="23.71" y2="57.03"/><line class="cls-3" x1="37.81" y1="34.85" x2="39.29" y2="57.03"/><rect class="cls-3" x="31.75" y="60.18" width="11.39" height="19.69"/><rect class="cls-3" x="17.78" y="60.18" width="10.52" height="8.78"/><rect class="cls-3" x="46.56" y="60.18" width="10.52" height="8.78"/><path class="cls-3" d="M63.45,69.16S80.63,71.3,80.63,52" transform="translate(-3.54 -3.54)"/><line class="cls-3" x1="77.09" y1="48.44" x2="77.09" y2="31.9"/><path class="cls-3" d="M87.16,28.91a6.53,6.53,0,1,1-13,0" transform="translate(-3.54 -3.54)"/><line class="cls-3" x1="70.57" y1="25.37" x2="70.57" y2="18.73"/><line class="cls-3" x1="83.62" y1="25.37" x2="83.62" y2="18.73"/><polyline class="cls-3" points="83.62 18.73 80.12 18.73 74.06 18.73 70.57 18.73"/><line class="cls-3" x1="74.06" y1="18.73" x2="74.06" y2="13.04"/><line class="cls-3" x1="80.12" y1="18.73" x2="80.12" y2="13.04"/></svg>